<svg width="50" height="50" viewBox="0 0 50 50" fill="none" xmlns="http://www.w3.org/2000/svg">
<path d="M25.0001 0.1875C38.6942 0.1875 49.8128 11.306 49.8128 25.0001C49.8128 38.6942 38.6942 49.8128 25.0001 49.8128C11.306 49.8128 0.1875 38.6942 0.1875 25.0001C0.1875 11.306 11.306 0.1875 25.0001 0.1875Z" fill="#00BF00"/>
<path d="M13.0574 15.4691C12.3201 17.4679 11.2998 20.6194 15.2038 25.8142C17.877 29.6942 23.3063 34.1464 23.3063 34.1464C23.3063 34.1464 30.403 39.1998 35.7987 34.9026C40.7088 31.4674 34.0849 27.4638 32.3799 27.1792C29.7909 27.8194 30.3348 29.466 28.271 29.7328C26.2072 29.9996 20.344 23.2028 20.1334 21.9719C20.7724 19.7223 21.8326 19.7843 21.9922 17.8206C22.0236 16.1813 16.0805 8.49385 13.0574 15.4691Z" fill="white"/>
</svg>
