<svg width="50" height="50" viewBox="0 0 50 50" fill="none" xmlns="http://www.w3.org/2000/svg">
<path d="M25 0.1875C38.6941 0.1875 49.8126 11.306 49.8126 25.0001C49.8126 38.6942 38.6941 49.8128 25 49.8128C11.3059 49.8128 0.187363 38.6942 0.187363 25.0001C0.187363 11.306 11.3059 0.1875 25 0.1875Z" fill="#DB4435"/>
<path d="M39.7758 24.5938C39.0209 22.6015 37.7234 19.5537 31.3689 18.1943C26.8059 17.0199 19.7874 17.2217 19.7874 17.2217C19.7874 17.2217 11.1162 18.0637 9.86323 24.8468C8.41122 30.6607 16.0369 29.3365 17.5104 28.4327C19.0443 26.2511 17.5536 25.3652 18.9361 23.8099C20.3187 22.2545 29.2028 23.5375 30.1692 24.3283C31.1629 26.4453 30.322 27.0941 31.4899 28.6809C32.5416 29.9386 42.0704 31.8414 39.7758 24.5938Z" fill="white"/>
</svg>
