<svg width="40" height="40" viewBox="0 0 40 40" fill="none" xmlns="http://www.w3.org/2000/svg">
<rect width="40" height="40" rx="20" fill="#ECF7FD"/>
<path d="M33.3507 32.7512C25.4863 38.8066 14.5167 38.7582 6.70605 32.6335L12.4308 29.95C12.7034 29.8218 12.9651 29.6715 13.2131 29.5006C13.2884 29.4488 13.3637 29.3947 13.4355 29.3382C14.0585 28.8615 14.5714 28.256 14.939 27.5629C15.2169 27.0304 15.4016 26.4543 15.4849 25.8594C15.5423 25.4734 15.5714 25.0837 15.5719 24.6935C15.5719 24.2865 15.5613 23.8794 15.5472 23.4723C15.539 23.2065 15.5319 22.9394 15.5284 22.6735C15.5237 22.301 15.5198 21.928 15.5166 21.5547L15.7519 21.6723L16.3637 21.9888L16.6472 22.037L19.9272 22.5947L23.5884 23.2182L23.699 26.9829L23.7355 28.2135L23.7531 28.8112V28.8476L23.8707 28.897L25.1731 29.4265L33.3507 32.7512Z" fill="#F2A196"/>
<path d="M23.7519 28.8478C23.3475 28.9174 22.9315 28.853 22.5672 28.6643L15.5472 22.9267C15.539 22.6608 15.5319 22.9384 15.5284 22.6725C15.5237 22.3 15.5197 21.927 15.5166 21.5537L15.7519 21.6714L16.3637 21.9878L16.6472 22.0361L19.9272 22.5937L23.5884 23.2172L23.699 26.9819L23.7354 28.2125L23.7531 28.8102V28.8478H23.7519Z" fill="#E88870"/>
<path d="M33.3507 32.7513C25.4863 38.8068 14.5167 38.7583 6.70605 32.6337L12.4308 29.9501C12.7034 29.822 12.9651 29.6717 13.2131 29.5007C13.2884 29.449 13.3637 29.3948 13.4355 29.3384C16.206 31.3101 19.9872 32.5537 23.2578 31.0819C24.0366 30.729 24.7519 30.1596 25.1755 29.4278L33.3507 32.7513Z" fill="#107BBC"/>
<path d="M31.2447 9.18879C31.2341 9.2582 31.2212 9.32643 31.2059 9.39467C31.1243 9.74444 30.9931 10.0808 30.8165 10.3935L30.8071 10.41C30.74 10.5276 30.6682 10.6453 30.5906 10.7629C30.3846 11.0649 30.1598 11.3537 29.9176 11.6276L29.7729 11.7888C29.6753 11.8982 29.5765 12.0053 29.4776 12.1111C30.0012 11.9935 30.5082 12.4817 30.6012 13.0088C30.6941 13.5358 30.4835 14.0676 30.2235 14.5382C29.7682 15.3711 29.1118 15.9253 28.5341 16.6488C28.1012 17.1876 27.8612 17.8253 27.3894 18.3406L27.3541 18.3794C26.1082 19.6876 24.1412 19.9935 22.5035 20.5523C21.9153 20.7547 15.5365 22.5664 15.5365 22.9617C15.5365 22.8758 14.9118 22.2558 14.1247 21.5017C11.3012 18.8205 10.3729 14.6782 12.0529 11.1253C13.8588 7.30173 17.96 4.57349 21.8659 3.2629C23.0871 2.85349 24.4729 2.5782 25.6306 3.14526C26.7882 3.71231 27.3647 5.47114 26.4047 6.32996C27.0085 5.87313 27.7595 5.6549 28.5141 5.71702C29.2111 5.76069 29.8684 6.05631 30.3635 6.54878C30.7557 6.94279 31.0377 7.43285 31.1812 7.96996C31.2875 8.36729 31.3092 8.78255 31.2447 9.18879Z" fill="#845161"/>
<path d="M31.2451 9.18902C31.2345 9.25844 31.2216 9.32667 31.2063 9.39491C31.1957 9.41491 31.1851 9.43608 31.1745 9.45961C31.0416 9.76314 30.9804 10.0902 30.8216 10.3937L30.8122 10.4102C30.7451 10.5278 30.6734 10.6455 30.5957 10.7631C30.3917 11.0666 30.1668 11.3555 29.9228 11.6278L29.7734 11.789C29.6757 11.8984 29.5769 12.0055 29.4781 12.1114C30.0016 11.9937 30.5086 12.482 30.6016 13.009C30.6945 13.5361 30.4839 14.0678 30.2239 14.5384C29.7686 15.3714 29.1122 15.9255 28.5345 16.649C28.1016 17.1878 27.8616 17.8255 27.3898 18.3408C26.8421 17.6895 26.4933 16.8943 26.3851 16.0502C26.1922 14.4902 26.3098 12.7902 26.2569 11.2114C26.2239 10.2184 25.9039 10.0349 26.4992 9.23138C26.9779 8.6408 27.5316 8.11518 28.1463 7.66785C28.6263 7.35138 29.2439 7.30197 29.8169 7.38314C30.3161 7.45141 30.7872 7.65481 31.1792 7.97138C31.2862 8.36817 31.3087 8.78301 31.2451 9.18902Z" fill="#69303A"/>
<ellipse cx="14.3594" cy="18.2593" rx="2" ry="2" fill="#F2A196"/>
<ellipse cx="14.9927" cy="18.2593" rx="1.79059" ry="1.79059" fill="#E88870"/>
<path d="M15.0205 16.3772L15.5382 23.0831L23.3546 27.6501C24.4749 28.068 25.7294 27.5684 26.2558 26.4948C27.3805 24.1913 29.1852 20.5537 28.9476 19.2007C28.5946 17.2007 27.6534 16.4948 27.6534 16.4948C27.7844 15.7105 27.9146 14.9286 28.044 14.149C28.1923 13.2654 28.3817 12.3431 28.1617 11.4548C27.9111 10.436 27.1417 10.0019 26.5087 9.24072C24.8429 11.3866 22.104 12.5995 19.7123 13.829C18.4793 14.469 15.0205 16.3772 15.0205 16.3772Z" fill="#F2A196"/>
</svg>
