<svg width="40" height="40" viewBox="0 0 40 40" fill="none" xmlns="http://www.w3.org/2000/svg">
<rect width="40" height="40" rx="20" fill="#ECF7FD"/>
<path fill-rule="evenodd" clip-rule="evenodd" d="M24.605 5.5138C28.1321 7.81498 28.8286 12.0973 28.8768 16.002C28.8972 17.6528 28.8816 19.2964 28.8661 20.9378C28.8358 24.1312 28.8057 27.3164 29.0403 30.5303C29.0239 30.3009 25.305 29.7491 24.8803 29.7303C23.9874 29.6917 23.0639 29.7755 22.1507 29.8584C21.7008 29.8993 21.2533 29.9399 20.8133 29.9656C20.0458 30.0136 19.2612 30.0328 18.4723 30.0521C16.9598 30.0892 15.4315 30.1267 13.978 30.3679C13.6961 30.4148 13.4179 30.4623 13.1421 30.5094C11.6815 30.7587 10.2848 30.9971 8.73914 31.0832C8.61696 31.1044 8.49125 31.0797 8.3862 31.0138C8.26855 30.9173 8.26855 30.7432 8.26855 30.5914C8.26855 28.773 8.35001 26.9554 8.43141 25.1391C8.54638 22.5736 8.66124 20.0109 8.5462 17.4526C8.44387 15.2762 8.80477 13.1028 9.60503 11.0762C10.2888 9.32853 11.3613 7.75947 12.7415 6.48792C13.1162 6.14929 13.5184 5.84235 13.9439 5.57027C17.105 3.53733 21.4203 3.43615 24.605 5.5138ZM14.2333 14.3338L15.8909 15.5103L21.2321 10.1703L20.5603 9.74557C19.9201 10.8307 19.0414 11.7559 17.9909 12.4514C16.8307 13.2484 15.5663 13.8818 14.2333 14.3338Z" fill="#00214E"/>
<path d="M33.3507 31.3787C25.4863 37.4341 14.5167 37.3857 6.70605 31.261L12.4308 28.5775C12.606 28.4947 12.7768 28.4028 12.9425 28.3022L13.0743 28.2199C13.1213 28.1905 13.1672 28.1599 13.2131 28.1281C13.9353 27.6298 14.5273 26.9653 14.939 26.1905C15.4096 25.3022 15.5649 24.321 15.5719 23.321C15.5719 22.7716 15.5496 22.2222 15.5355 21.674C15.5355 21.5508 15.5331 21.4273 15.5284 21.3034C15.5237 20.9308 15.5198 20.5579 15.5166 20.1846H15.5249L15.7496 20.3022L16.3613 20.6187L19.9249 21.2246L23.586 21.8481L23.6696 24.6716L23.6931 25.481V25.6069L23.7484 27.474L25.0978 28.0234L26.1566 28.4516L33.3507 31.3787Z" fill="#F2A196"/>
<path d="M23.6701 24.6726C23.4165 24.8463 23.1136 24.9333 22.8065 24.9208C21.0677 24.7338 17.6724 23.3703 15.5383 20.8467C15.5383 20.7236 15.536 20.6001 15.5312 20.4761V20.1855L15.756 20.3032L16.3677 20.6197L19.9312 21.2255L23.5924 21.8491L23.6701 24.6726Z" fill="#E88870"/>
<ellipse cx="12.5752" cy="16.416" rx="2" ry="2" fill="#F2A196"/>
<ellipse cx="13.2812" cy="16.1807" rx="2" ry="2" fill="#E88870"/>
<path d="M26.1687 13.3881C27.5499 18.174 24.6158 23.961 22.8111 23.961C20.3405 23.961 14.3405 21.9869 12.9605 17.201C11.5805 12.4151 13.4205 7.68102 17.0676 6.62925C20.7146 5.57749 24.7876 8.60102 26.1687 13.3881Z" fill="#F2A196"/>
<path d="M21.8826 5.37272C21.8278 5.92676 21.7386 6.47684 21.6155 7.01978C21.405 7.97788 21.0479 8.89773 20.5567 9.74684C19.9164 10.8319 19.0378 11.7572 17.9873 12.4527C16.8271 13.2497 15.5626 13.8831 14.2296 14.3351C13.1739 14.6937 12.0944 14.9779 10.999 15.1857C11.0355 14.288 10.999 13.1774 11.1096 12.1351C11.192 11.3868 11.3567 10.6727 11.6884 10.0974C12.5886 8.57522 13.9017 7.33924 15.4755 6.53272L15.4896 6.52566C17.2296 5.63037 19.9249 4.74684 21.8826 5.37272Z" fill="#00214E"/>
<path d="M33.3507 31.3786C25.4863 37.434 14.5167 37.3856 6.70605 31.2609L12.4308 28.5774C12.7034 28.4492 12.9651 28.2989 13.2131 28.128C13.2884 28.0762 13.3637 28.0221 13.4355 27.9656C14.0585 27.4889 14.5714 26.8834 14.939 26.1903C15.2169 25.6579 15.4016 25.0817 15.4849 24.4868C15.568 24.5673 15.6551 24.6435 15.746 24.7151C16.4673 25.2489 17.2502 25.694 18.0778 26.0409C18.4796 26.2085 18.8904 26.3535 19.3084 26.4751C20.5677 26.8423 21.8825 26.9813 23.1907 26.8856C23.3719 26.8715 23.5543 26.8539 23.7355 26.8409L23.7531 27.4386V27.4774L25.1766 28.0562L33.3507 31.3786Z" fill="#43ADEF"/>
</svg>
