<svg xmlns="http://www.w3.org/2000/svg" width="19" height="20" viewBox="0 0 19 20" fill="none">
    <path d="M14.833 0.833984L18.1663 4.16732L14.833 7.50065" stroke="#787E87" stroke-width="1.5" stroke-linecap="round"
        stroke-linejoin="round" />
    <path d="M11.5 4.16797H18.1667" stroke="#787E87" stroke-width="1.5" stroke-linecap="round"
        stroke-linejoin="round" />
    <path
        d="M17.3332 14.1014V16.6014C17.3341 16.8335 17.2866 17.0632 17.1936 17.2758C17.1006 17.4885 16.9643 17.6794 16.7933 17.8363C16.6222 17.9932 16.4203 18.1126 16.2005 18.187C15.9806 18.2613 15.7477 18.2889 15.5165 18.268C12.9522 17.9894 10.489 17.1132 8.32486 15.7097C6.31139 14.4303 4.60431 12.7232 3.32486 10.7097C1.91651 8.53572 1.04007 6.06054 0.76653 3.48472C0.745705 3.25427 0.773092 3.02202 0.846947 2.80274C0.920801 2.58346 1.03951 2.38196 1.1955 2.21107C1.3515 2.04018 1.54137 1.90364 1.75302 1.81015C1.96468 1.71666 2.19348 1.66827 2.42486 1.66805H4.92486C5.32928 1.66407 5.72136 1.80728 6.028 2.07099C6.33464 2.33471 6.53493 2.70092 6.59153 3.10138C6.69705 3.90144 6.89274 4.68699 7.17486 5.44305C7.28698 5.74132 7.31125 6.06548 7.24478 6.37712C7.17832 6.68875 7.02392 6.97481 6.79986 7.20138L5.74153 8.25972C6.92783 10.346 8.65524 12.0734 10.7415 13.2597L11.7999 12.2014C12.0264 11.9773 12.3125 11.8229 12.6241 11.7565C12.9358 11.69 13.2599 11.7143 13.5582 11.8264C14.3143 12.1085 15.0998 12.3042 15.8999 12.4097C16.3047 12.4668 16.6744 12.6707 16.9386 12.9826C17.2029 13.2945 17.3433 13.6927 17.3332 14.1014Z"
        stroke="#787E87" stroke-width="1.5" stroke-linecap="round" stroke-linejoin="round" />
</svg>