<svg width="34" height="34" viewBox="0 0 34 34" fill="none" xmlns="http://www.w3.org/2000/svg">
<rect width="34" height="34" rx="17" fill="#107BBC"/>
<path d="M23.0182 19.724L20.9015 19.4823C20.3932 19.424 19.8932 19.599 19.5349 19.9573L18.0015 21.4906C15.6432 20.2906 13.7099 18.3656 12.5099 15.999L14.0515 14.4573C14.4099 14.099 14.5849 13.599 14.5265 13.0906L14.2849 10.9906C14.1849 10.149 13.4765 9.51562 12.6265 9.51562H11.1849C10.2432 9.51562 9.45986 10.299 9.5182 11.2406C9.95986 18.3573 15.6515 24.0406 22.7599 24.4823C23.7015 24.5406 24.4849 23.7573 24.4849 22.8156V21.374C24.4932 20.5323 23.8599 19.824 23.0182 19.724Z" fill="white"/>
</svg>
