<svg width="560" height="420" viewBox="0 0 560 420" fill="none" xmlns="http://www.w3.org/2000/svg">
<path d="M419.07 311.774L134.695 303.625C128.302 303.448 122.192 300.945 117.51 296.586C112.829 292.227 109.898 286.311 109.266 279.946L95.5392 144.321C95.1738 140.69 95.5663 137.024 96.692 133.553C97.8176 130.082 99.6519 126.883 102.079 124.158C104.505 121.434 107.471 119.242 110.789 117.724C114.107 116.205 117.703 115.392 121.352 115.336L437.883 110.961C441.647 110.911 445.378 111.666 448.826 113.178C452.274 114.689 455.358 116.922 457.87 119.725C460.383 122.528 462.267 125.836 463.394 129.428C464.521 133.02 464.867 136.811 464.406 140.547L445.977 288.696C445.165 295.2 441.958 301.167 436.983 305.434C432.008 309.702 425.622 311.962 419.07 311.774Z" fill="#ECF7FD"/>
<path d="M217.079 259.93L217.634 253.477H222.708L221.952 259.93H217.079Z" fill="#107BBC" stroke="#1498EB" stroke-width="0.546875"/>
<path d="M216.781 260.203L209.617 341.687C209.602 341.907 209.632 342.128 209.704 342.336C209.777 342.545 209.89 342.736 210.038 342.899C210.187 343.063 210.366 343.195 210.566 343.287C210.766 343.379 210.983 343.431 211.203 343.438C211.596 343.437 211.975 343.292 212.268 343.03C212.56 342.767 212.746 342.406 212.789 342.016L222.195 260.203H216.781Z" fill="#43ADEF"/>
<path d="M272.234 253.203H266.602L267.422 260.203H272.836L272.234 253.203Z" fill="#B0D7C0"/>
<path d="M267.422 260.203L276.828 342.016C276.893 342.419 277.109 342.782 277.433 343.03C277.757 343.279 278.163 343.394 278.569 343.352C278.975 343.31 279.35 343.114 279.616 342.804C279.882 342.495 280.019 342.095 280 341.688L272.836 260.203H267.422Z" fill="#43ADEF"/>
<path d="M274.312 297.5H216.234V300.289H274.312V297.5Z" fill="#43ADEF"/>
<path d="M278.031 255.227H211.586C211.334 255.228 211.084 255.18 210.852 255.084C210.619 254.988 210.407 254.847 210.229 254.669C210.051 254.491 209.91 254.28 209.814 254.047C209.719 253.814 209.67 253.564 209.672 253.313V253.148C209.67 252.897 209.719 252.647 209.814 252.414C209.91 252.181 210.051 251.97 210.229 251.792C210.407 251.614 210.619 251.473 210.852 251.377C211.084 251.281 211.334 251.233 211.586 251.234H278.086C278.337 251.233 278.587 251.281 278.82 251.377C279.053 251.473 279.264 251.614 279.442 251.792C279.62 251.97 279.761 252.181 279.857 252.414C279.953 252.647 280.001 252.897 280 253.148V253.313C279.991 253.827 279.779 254.317 279.41 254.676C279.041 255.034 278.546 255.232 278.031 255.227Z" fill="#22272E"/>
<path d="M380.461 221.375L331.516 218.367C330.655 218.319 329.814 218.089 329.049 217.69C328.284 217.292 327.613 216.736 327.08 216.058C326.547 215.38 326.165 214.597 325.958 213.759C325.752 212.922 325.726 212.051 325.883 211.203L344.531 106.695C344.852 104.953 345.729 103.361 347.031 102.158C348.332 100.956 349.988 100.207 351.75 100.023L400.914 95.2655C401.849 95.1771 402.791 95.3048 403.668 95.6385C404.545 95.9723 405.334 96.5032 405.974 97.1902C406.613 97.8773 407.086 98.7022 407.356 99.6011C407.626 100.5 407.686 101.449 407.531 102.375L388.937 214.594C388.623 216.577 387.58 218.371 386.012 219.625C384.444 220.879 382.465 221.503 380.461 221.375Z" fill="#85CAF4"/>
<path d="M377.781 221.047L328.836 218.039C327.975 217.991 327.134 217.76 326.369 217.362C325.605 216.964 324.933 216.408 324.4 215.73C323.868 215.052 323.485 214.269 323.279 213.431C323.072 212.594 323.046 211.723 323.203 210.875L341.852 106.367C342.173 104.624 343.05 103.033 344.351 101.83C345.652 100.627 347.308 99.8784 349.07 99.6951L398.234 94.9373C399.169 94.849 400.111 94.9766 400.988 95.3104C401.866 95.6441 402.655 96.175 403.294 96.8621C403.934 97.5492 404.407 98.374 404.677 99.273C404.947 100.172 405.007 101.121 404.852 102.047L386.258 214.265C385.934 216.244 384.888 218.032 383.323 219.285C381.757 220.537 379.783 221.165 377.781 221.047Z" fill="#43ADEF"/>
<path d="M427.109 161.985L351.75 163.297C351.29 163.304 350.835 163.21 350.416 163.02C349.997 162.831 349.625 162.551 349.327 162.2C349.029 161.85 348.813 161.438 348.693 160.995C348.573 160.551 348.552 160.086 348.633 159.633L354.156 128.188C354.313 127.32 354.752 126.528 355.404 125.935C356.057 125.342 356.887 124.98 357.766 124.907L432.141 119.93C432.735 119.892 433.331 119.988 433.883 120.212C434.435 120.436 434.929 120.781 435.328 121.223C435.728 121.665 436.023 122.191 436.19 122.763C436.358 123.334 436.395 123.936 436.297 124.524L430.828 158.704C430.726 159.615 430.289 160.455 429.602 161.062C428.915 161.668 428.026 161.997 427.109 161.985Z" fill="#85CAF4"/>
<path d="M418.797 212.68L343.438 209.398C342.994 209.375 342.561 209.258 342.165 209.056C341.77 208.854 341.422 208.571 341.143 208.225C340.865 207.88 340.662 207.479 340.548 207.05C340.435 206.621 340.413 206.173 340.484 205.734L346.172 173.523C346.335 172.61 346.812 171.782 347.521 171.182C348.23 170.583 349.126 170.251 350.055 170.242L424.539 169.641C425.114 169.639 425.683 169.763 426.206 170.002C426.729 170.242 427.193 170.592 427.568 171.029C427.942 171.466 428.217 171.978 428.374 172.532C428.531 173.085 428.566 173.666 428.477 174.234L422.898 209.398C422.732 210.351 422.223 211.21 421.468 211.814C420.713 212.418 419.763 212.726 418.797 212.68Z" fill="#85CAF4"/>
<path d="M340.703 112.656L403.922 107.625" stroke="#85CAF4" stroke-width="0.984375" stroke-linecap="round" stroke-linejoin="round"/>
<path d="M372.859 105.054L367.445 105.546C366.953 105.601 366.68 105.218 366.734 104.671C366.78 104.412 366.904 104.174 367.09 103.988C367.276 103.802 367.515 103.678 367.774 103.632L373.188 103.14C373.68 103.085 374.008 103.468 373.899 104.015C373.845 104.27 373.718 104.504 373.533 104.689C373.349 104.873 373.115 105 372.859 105.054Z" fill="#22272E"/>
<path d="M376.469 104.726C375.976 104.781 375.648 104.398 375.758 103.851C375.803 103.592 375.927 103.353 376.113 103.167C376.299 102.981 376.538 102.857 376.797 102.812C377.289 102.757 377.617 103.14 377.508 103.687C377.48 103.953 377.362 104.202 377.173 104.391C376.983 104.58 376.735 104.698 376.469 104.726Z" fill="#22272E"/>
<path d="M437.391 108.445L416.555 110.031C416.382 110.053 416.207 110.032 416.043 109.972C415.88 109.912 415.733 109.813 415.615 109.685C415.498 109.556 415.412 109.402 415.366 109.234C415.321 109.066 415.316 108.889 415.352 108.719L417.43 96.086C417.488 95.7112 417.67 95.3669 417.948 95.1089C418.226 94.8509 418.583 94.6941 418.961 94.6641L439.578 92.4766C439.782 92.4544 439.989 92.4793 440.182 92.5492C440.375 92.6192 440.549 92.7324 440.692 92.8802C440.834 93.028 440.941 93.2065 441.004 93.402C441.067 93.5974 441.084 93.8047 441.055 94.0079L439.031 107.023C438.933 107.398 438.724 107.735 438.431 107.989C438.139 108.242 437.776 108.402 437.391 108.445Z" fill="#107BBC" stroke="#1498EB" stroke-width="0.984375" stroke-linecap="round" stroke-linejoin="round"/>
<path d="M417.977 94.9922L427.055 100.844C427.298 101.004 427.583 101.089 427.875 101.089C428.167 101.089 428.452 101.004 428.695 100.844L440.508 92.75" fill="#107BBC"/>
<path d="M417.977 94.9922L427.055 100.844C427.298 101.004 427.583 101.089 427.875 101.089C428.167 101.089 428.452 101.004 428.695 100.844L440.508 92.75" stroke="#1498EB" stroke-width="0.984375" stroke-linecap="round" stroke-linejoin="round"/>
<path d="M326.251 132.728L326.177 132.732L326.116 132.772L323.6 134.413L323.6 134.413C323.515 134.469 323.415 134.499 323.313 134.498C323.211 134.497 323.112 134.466 323.028 134.408C322.944 134.351 322.878 134.27 322.84 134.175C322.802 134.081 322.793 133.977 322.814 133.878L322.814 133.878L322.816 133.87L325.495 118.995C325.495 118.995 325.495 118.995 325.495 118.995C325.59 118.476 325.852 118.002 326.243 117.647C326.633 117.292 327.129 117.076 327.655 117.031C327.655 117.031 327.655 117.031 327.656 117.031L345.482 115.664L345.485 115.664C345.715 115.644 345.947 115.676 346.162 115.76C346.378 115.843 346.571 115.975 346.728 116.145C346.885 116.315 347 116.519 347.065 116.74C347.131 116.962 347.144 117.195 347.105 117.423C347.105 117.423 347.105 117.423 347.105 117.423L344.809 130.438L344.809 130.438L344.807 130.447C344.756 130.803 344.585 131.131 344.322 131.377C344.06 131.622 343.723 131.771 343.365 131.799L326.251 132.728Z" fill="#107BBC" stroke="#1498EB" stroke-width="0.546875"/>
<path d="M328.562 121.133L343 120.094" stroke="#22272E" stroke-width="0.984375" stroke-linecap="round" stroke-linejoin="round"/>
<path d="M327.906 124.797L342.344 123.812" stroke="#22272E" stroke-width="0.984375" stroke-linecap="round" stroke-linejoin="round"/>
<path d="M327.25 128.406L334.797 127.969" stroke="#22272E" stroke-width="0.984375" stroke-linecap="round" stroke-linejoin="round"/>
<path d="M423.063 158.647L347.703 159.959C347.243 159.967 346.788 159.872 346.369 159.682C345.95 159.493 345.578 159.213 345.281 158.863C344.983 158.512 344.766 158.101 344.646 157.657C344.526 157.213 344.505 156.748 344.586 156.295L350.109 124.85C350.266 123.982 350.705 123.19 351.358 122.597C352.01 122.004 352.84 121.643 353.719 121.569L428.094 116.592C428.688 116.554 429.284 116.65 429.836 116.874C430.388 117.098 430.882 117.443 431.282 117.885C431.681 118.327 431.976 118.853 432.144 119.425C432.311 119.996 432.348 120.598 432.25 121.186L426.781 155.366C426.671 156.273 426.232 157.109 425.546 157.714C424.861 158.319 423.977 158.651 423.063 158.647Z" fill="#22272E"/>
<path d="M367.227 134.858C366.844 137.101 364.875 139.015 362.852 139.124C360.828 139.233 359.516 137.483 359.899 135.241C360.281 132.999 362.25 131.085 364.274 130.976C366.297 130.866 367.61 132.616 367.227 134.858Z" fill="#85CAF4"/>
<path d="M365.805 149.242L356.836 149.516C356.55 149.527 356.265 149.475 356.003 149.362C355.74 149.249 355.505 149.079 355.317 148.864C355.128 148.649 354.99 148.395 354.912 148.12C354.834 147.845 354.819 147.555 354.867 147.274L355.031 146.289C355.742 142.242 359.242 138.797 362.906 138.688C366.57 138.524 369.031 141.75 368.32 145.852L368.102 147.274C367.994 147.811 367.71 148.298 367.293 148.655C366.877 149.012 366.353 149.219 365.805 149.242Z" fill="#85CAF4"/>
<path d="M414.961 139.731L414.956 139.732L379.245 141.372L379.245 141.372L379.238 141.373C379.104 141.382 378.97 141.361 378.846 141.31C378.721 141.259 378.611 141.181 378.522 141.08C378.433 140.979 378.369 140.859 378.335 140.73C378.3 140.6 378.296 140.464 378.323 140.333L378.323 140.333L378.325 140.321L378.707 137.918C378.767 137.585 378.936 137.282 379.188 137.056C379.439 136.83 379.758 136.693 380.095 136.668C380.096 136.668 380.097 136.668 380.098 136.668L415.858 134.809L415.858 134.809L415.869 134.808C416.003 134.796 416.138 134.815 416.262 134.865C416.387 134.915 416.499 134.993 416.588 135.094C416.677 135.195 416.74 135.316 416.774 135.446C416.807 135.576 416.809 135.712 416.78 135.844L416.778 135.851L416.777 135.858L416.34 138.483L416.339 138.483L416.338 138.492C416.294 138.829 416.13 139.138 415.878 139.366C415.626 139.593 415.301 139.722 414.961 139.731Z" fill="#107BBC" stroke="#1498EB" stroke-width="0.546875"/>
<path d="M414.695 209.344L339.391 206.008C338.947 205.984 338.514 205.868 338.119 205.666C337.723 205.464 337.375 205.181 337.096 204.835C336.818 204.489 336.615 204.089 336.502 203.659C336.388 203.23 336.366 202.782 336.437 202.344L342.125 170.133C342.288 169.219 342.766 168.391 343.475 167.792C344.184 167.193 345.08 166.86 346.008 166.852L420.492 166.25C421.067 166.249 421.636 166.372 422.159 166.612C422.682 166.851 423.147 167.202 423.521 167.638C423.895 168.075 424.17 168.588 424.327 169.141C424.484 169.695 424.519 170.276 424.43 170.844L418.852 206.008C418.685 206.975 418.17 207.848 417.405 208.462C416.639 209.077 415.676 209.39 414.695 209.344Z" fill="#22272E"/>
<path d="M359.187 181.398C358.805 183.695 356.836 185.555 354.758 185.5C352.68 185.445 351.422 183.586 351.805 181.289C352.187 178.992 354.156 177.188 356.18 177.188C358.203 177.188 359.625 179.102 359.187 181.398Z" fill="#85CAF4"/>
<path d="M357.601 196.165L348.633 195.891C348.359 195.878 348.091 195.808 347.846 195.685C347.601 195.563 347.384 195.391 347.209 195.18C347.034 194.969 346.905 194.724 346.83 194.46C346.755 194.197 346.736 193.921 346.773 193.649L346.992 192.501C347.703 188.344 351.203 185.063 354.867 185.118C358.531 185.173 360.992 188.618 360.226 192.829L360.008 194.196C359.91 194.759 359.614 195.268 359.172 195.629C358.73 195.991 358.172 196.181 357.601 196.165Z" fill="#85CAF4"/>
<path d="M370.668 185.223L370.668 185.223L370.668 185.22C370.725 184.87 370.906 184.552 371.177 184.323C371.448 184.095 371.792 183.97 372.146 183.973C372.146 183.973 372.146 183.973 372.146 183.973L407.91 184.246C407.91 184.246 407.91 184.246 407.911 184.246C408.041 184.248 408.168 184.278 408.286 184.334C408.403 184.39 408.507 184.47 408.591 184.57C408.675 184.67 408.736 184.786 408.771 184.911C408.805 185.037 408.813 185.168 408.792 185.297C408.792 185.297 408.792 185.297 408.792 185.297L408.356 188.023C408.278 188.374 408.085 188.688 407.807 188.915C407.528 189.144 407.18 189.271 406.82 189.277L371.113 188.785C371.113 188.785 371.113 188.785 371.113 188.785C370.983 188.783 370.855 188.753 370.738 188.697C370.62 188.642 370.516 188.561 370.432 188.461C370.348 188.362 370.287 188.245 370.252 188.12C370.218 187.995 370.21 187.864 370.231 187.736L370.668 185.223Z" fill="#107BBC" stroke="#1498EB" stroke-width="0.546875"/>
<path d="M413.383 83.2895C413.091 82.9718 412.713 82.7472 412.295 82.6439C411.876 82.5406 411.437 82.5631 411.031 82.7087C410.625 82.8543 410.272 83.1165 410.015 83.4623C409.757 83.8082 409.608 84.2222 409.586 84.6526C409.563 85.083 409.668 85.5104 409.887 85.8813C410.107 86.2523 410.431 86.5501 410.819 86.7375C411.207 86.9249 411.642 86.9934 412.069 86.9346C412.496 86.8757 412.896 86.6921 413.219 86.4067C413.436 86.2143 413.614 85.9804 413.74 85.7187C413.866 85.457 413.939 85.1728 413.955 84.8826C413.97 84.5924 413.927 84.302 413.829 84.0285C413.731 83.755 413.579 83.5038 413.383 83.2895Z" fill="#22272E"/>
<path d="M410.224 78.3289L410.232 78.3381L410.241 78.3466C410.76 78.8421 411.358 79.2475 412.011 79.5459L412.024 79.552L412.038 79.5567C412.163 79.5982 412.29 79.6393 412.418 79.6808C412.805 79.8066 413.206 79.9366 413.609 80.098L413.609 80.0981L413.615 80.1003C413.833 80.1817 414.027 80.3175 414.177 80.4947C414.328 80.6718 414.431 80.8846 414.477 81.1128C414.523 81.3409 414.509 81.577 414.438 81.7985C414.367 82.0196 414.241 82.2189 414.072 82.3777L411.613 84.6186L409.153 86.8596C408.978 87.0149 408.766 87.1226 408.537 87.1725C408.308 87.2225 408.07 87.2127 407.846 87.144C407.621 87.0754 407.418 86.9502 407.257 86.7804C407.095 86.6107 406.979 86.4022 406.921 86.1749L406.921 86.1749L406.918 86.164C406.755 85.6208 406.593 85.0261 406.486 84.5426L406.486 84.5426L406.484 84.5347C406.308 83.843 405.969 83.2038 405.494 82.671L405.112 82.2344L405.112 82.2343L405.107 82.2289C404.821 81.9189 404.599 81.5553 404.454 81.159C404.309 80.7627 404.244 80.3416 404.262 79.92C404.281 79.4985 404.383 79.0848 404.563 78.7029C404.742 78.321 404.996 77.9785 405.308 77.6952L405.308 77.6952L405.31 77.6934C405.62 77.4071 405.984 77.185 406.38 77.0401C406.777 76.8951 407.198 76.8301 407.619 76.8489C408.041 76.8676 408.455 76.9697 408.836 77.1492C409.218 77.3284 409.56 77.5813 409.843 77.8932L410.224 78.3289Z" fill="#107BBC" stroke="#1498EB" stroke-width="0.546875"/>
<path d="M204.914 154.438L139.508 165.375C138.947 165.465 138.374 165.443 137.822 165.31C137.27 165.177 136.75 164.935 136.292 164.6C135.835 164.264 135.448 163.84 135.155 163.354C134.862 162.867 134.669 162.328 134.586 161.766L126.219 101.938C126.141 101.391 126.189 100.833 126.361 100.307C126.532 99.7815 126.821 99.3022 127.207 98.906C127.593 98.5099 128.064 98.2075 128.585 98.022C129.105 97.8365 129.662 97.773 130.211 97.8362L194.852 105.492C195.757 105.598 196.605 105.988 197.274 106.608C197.942 107.227 198.397 108.043 198.57 108.938L206.883 151.649C206.991 152.28 206.844 152.927 206.475 153.45C206.106 153.973 205.545 154.328 204.914 154.438Z" fill="#85CAF4"/>
<path d="M207.649 153.672L142.242 164.61C141.682 164.7 141.109 164.678 140.557 164.544C140.005 164.411 139.485 164.17 139.027 163.834C138.569 163.498 138.182 163.075 137.889 162.588C137.596 162.102 137.403 161.562 137.32 161L128.899 101.172C128.82 100.625 128.869 100.067 129.04 99.5414C129.212 99.0158 129.501 98.5366 129.887 98.1404C130.272 97.7443 130.744 97.4418 131.264 97.2564C131.785 97.0709 132.342 97.0074 132.891 97.0706L197.531 104.727C198.437 104.832 199.285 105.223 199.954 105.842C200.622 106.461 201.076 107.278 201.25 108.172L209.563 150.883C209.627 151.193 209.629 151.512 209.567 151.822C209.504 152.132 209.38 152.426 209.201 152.687C209.023 152.947 208.793 153.169 208.526 153.338C208.259 153.508 207.961 153.621 207.649 153.672Z" fill="#43ADEF"/>
<path d="M165.867 150.663L149.734 152.523C149.162 152.601 148.582 152.449 148.12 152.101C147.659 151.752 147.355 151.235 147.273 150.663L141.367 111.179C141.326 110.92 141.344 110.656 141.421 110.406C141.498 110.155 141.631 109.926 141.811 109.736C141.991 109.546 142.212 109.399 142.458 109.308C142.703 109.217 142.966 109.183 143.227 109.21L159.359 110.413C159.858 110.445 160.331 110.647 160.7 110.986C161.068 111.324 161.309 111.778 161.383 112.273L167.398 148.695C167.443 149.156 167.309 149.617 167.024 149.983C166.74 150.35 166.326 150.593 165.867 150.663Z" fill="#22272E"/>
<path d="M151.016 151.54L151.016 151.54L151.01 151.541C150.509 151.609 150.001 151.476 149.598 151.171C149.194 150.867 148.928 150.414 148.857 149.914L148.856 149.912L142.95 110.428L142.95 110.428L142.95 110.424C142.915 110.207 142.93 109.985 142.995 109.775C143.059 109.565 143.172 109.373 143.323 109.213C143.474 109.053 143.659 108.93 143.865 108.853C144.071 108.777 144.292 108.749 144.511 108.771L144.511 108.771L144.519 108.772L160.652 109.975V109.975L160.654 109.975C161.091 110.003 161.505 110.18 161.827 110.476C162.149 110.772 162.36 111.169 162.425 111.602L162.425 111.602L162.426 111.606L168.44 148.022C168.486 148.412 168.376 148.805 168.135 149.115C167.892 149.426 167.537 149.63 167.147 149.681C167.146 149.681 167.145 149.681 167.145 149.681L151.016 151.54Z" fill="#107BBC" stroke="#1498EB" stroke-width="0.546875"/>
<path d="M151.266 111.562L153.781 111.727" stroke="#22272E" stroke-width="0.984375" stroke-linecap="round" stroke-linejoin="round"/>
<path d="M155.094 111.836H155.258" stroke="#22272E" stroke-width="0.984375" stroke-linecap="round" stroke-linejoin="round"/>
<path d="M143.172 113.586L163.188 114.625" stroke="#22272E" stroke-width="0.984375" stroke-linecap="round" stroke-linejoin="round"/>
<path d="M148.148 146.891L168.164 145.031" stroke="#22272E" stroke-width="0.984375" stroke-linecap="round" stroke-linejoin="round"/>
<path d="M188.89 116.485C189.164 118.016 188.453 119.22 187.304 119.165C186.156 119.11 184.898 117.798 184.625 116.266C184.351 114.735 185.062 113.477 186.265 113.587C187.469 113.696 188.562 114.954 188.89 116.485Z" fill="#22272E"/>
<path d="M191.024 126.272H186.102C185.682 126.275 185.275 126.128 184.954 125.857C184.633 125.587 184.419 125.21 184.352 124.796L184.188 123.921C183.695 121.022 185.063 118.78 187.195 118.835C189.328 118.89 191.406 121.187 191.899 123.976L192.063 124.96C192.106 125.117 192.111 125.282 192.078 125.442C192.046 125.602 191.976 125.751 191.875 125.879C191.774 126.007 191.644 126.109 191.496 126.177C191.348 126.246 191.186 126.278 191.024 126.272Z" fill="#22272E"/>
<path d="M185.281 134.914C185.555 136.554 184.789 137.922 183.531 138.031C182.273 138.14 180.961 136.828 180.687 135.133C180.414 133.437 181.18 132.07 182.492 132.015C183.805 131.961 184.953 133.273 185.281 134.914Z" fill="#22272E"/>
<path d="M187.469 145.36L182.274 145.907C181.819 145.955 181.364 145.83 180.998 145.556C180.633 145.282 180.385 144.88 180.305 144.43L180.141 143.555C179.594 140.493 181.07 137.868 183.422 137.704C185.664 137.54 187.906 139.836 188.453 142.79L188.617 143.774C188.659 143.955 188.661 144.142 188.624 144.324C188.587 144.505 188.511 144.677 188.403 144.827C188.294 144.977 188.154 145.103 187.993 145.194C187.832 145.286 187.653 145.343 187.469 145.36Z" fill="#22272E"/>
<path d="M198.625 134.258C198.898 135.789 198.297 137.047 197.203 137.156C196.109 137.265 194.961 136.008 194.687 134.476C194.414 132.945 195.07 131.633 196.164 131.578C197.258 131.523 198.352 132.781 198.625 134.258Z" fill="#22272E"/>
<path d="M200.594 143.992L196.547 144.43C196.099 144.477 195.65 144.35 195.294 144.075C194.937 143.8 194.701 143.398 194.633 142.953L194.523 142.242C193.977 139.399 195.234 136.992 197.203 136.828C199.172 136.719 201.141 138.852 201.633 141.586L201.797 142.406C201.847 142.776 201.748 143.15 201.523 143.448C201.297 143.745 200.963 143.941 200.594 143.992Z" fill="#22272E"/>
<path d="M170.078 127.313L175.109 127.258" stroke="#22272E" stroke-width="0.984375" stroke-linecap="round" stroke-linejoin="round"/>
<path d="M175 129.554L177.844 127.694C177.922 127.648 177.986 127.581 178.028 127.501C178.071 127.421 178.09 127.331 178.084 127.24C178.079 127.15 178.048 127.062 177.996 126.988C177.944 126.914 177.872 126.856 177.789 126.819L174.289 125.015C174.206 124.965 174.11 124.941 174.013 124.946C173.916 124.951 173.824 124.986 173.747 125.045C173.67 125.104 173.613 125.185 173.583 125.277C173.553 125.369 173.551 125.469 173.578 125.562L174.234 129.226C174.243 129.31 174.274 129.391 174.324 129.46C174.374 129.528 174.442 129.582 174.52 129.616C174.599 129.649 174.684 129.661 174.769 129.65C174.853 129.639 174.933 129.606 175 129.554Z" fill="#22272E"/>
<path d="M300.563 314.179C300.563 314.179 301.328 321.671 301.985 325.554C302.149 326.702 306.469 328.015 310.406 327.194C315.274 326.21 315.547 323.421 315.547 323.421C315.547 323.421 314.617 310.296 314.508 309.366C314.399 308.437 301.274 310.898 300.563 314.179Z" fill="#B28D93"/>
<path d="M314.344 319.047C310.57 320.961 305.648 321.016 302.75 320.852C302.107 320.817 301.496 320.557 301.026 320.117C300.556 319.677 300.256 319.085 300.18 318.445C299.906 316.039 299.688 314.18 299.688 314.18C300.453 310.516 315.164 307.781 315.273 308.82C315.328 309.313 315.602 312.867 315.875 316.422C315.9 316.96 315.768 317.495 315.496 317.96C315.225 318.426 314.825 318.803 314.344 319.047Z" fill="#22272E"/>
<path d="M301.875 325.117C301.875 325.117 301.164 326.047 301.492 328.18C301.82 330.313 301.438 339.883 302.641 341.031C303.844 342.18 317.406 341.359 323.477 339.992C329.984 338.516 334.086 335.945 334.524 334.578C335.18 332.609 334.633 332.336 327.906 330.367C321.18 328.398 317.789 325.609 316.367 324.023C316.085 323.693 315.738 323.423 315.349 323.23C314.96 323.037 314.535 322.924 314.101 322.898C313.667 322.873 313.233 322.935 312.823 323.081C312.414 323.228 312.038 323.455 311.719 323.75C310.899 324.461 309.914 327.031 308.109 327.031C303.789 326.977 302.313 324.898 301.875 325.117Z" fill="#22272E"/>
<path d="M325.445 328.891C325.445 328.891 320.414 329.328 316.75 334.578" stroke="white" stroke-width="0.984375" stroke-linecap="round" stroke-linejoin="round"/>
<path d="M321.289 326.977C319.708 327.246 318.201 327.842 316.864 328.727C315.527 329.613 314.389 330.767 313.523 332.117" stroke="white" stroke-width="0.984375" stroke-linecap="round" stroke-linejoin="round"/>
<path d="M254.844 314.343C254.844 314.343 254.078 324.898 253.969 325.39C253.859 325.882 254.734 328.453 259.93 329.163C265.125 329.874 266.875 326.703 266.875 326.703C266.875 326.703 268.734 317.023 269.063 315.273C269.391 313.523 256.539 312.538 254.844 314.343Z" fill="#B28D93"/>
<path d="M270.047 315.056C269.883 315.766 269.5 317.735 269.117 319.923C269.014 320.507 268.723 321.042 268.289 321.446C267.855 321.851 267.301 322.103 266.711 322.165C262.932 322.589 259.106 322.102 255.555 320.743C254.986 320.529 254.503 320.136 254.177 319.623C253.852 319.11 253.702 318.505 253.75 317.899C253.914 315.712 254.024 313.907 254.024 313.907C255.883 311.884 270.43 313.087 270.047 315.056Z" fill="#22272E"/>
<path d="M253.969 325.008C253.969 325.008 252.656 325.336 252.547 327.578C252.437 329.82 249.867 340.047 249.977 341.141C250.086 342.234 250.687 343.602 258.945 343.492C267.203 343.383 271.797 343.82 273.328 342.508C274.859 341.195 272.781 338.188 271.25 335.453C269.719 332.719 267.422 328.617 267.039 326.375C266.482 326.764 265.875 327.077 265.234 327.305C264.742 327.359 264.25 325.008 261.187 325.008C257.633 325.008 256.375 326.977 256.047 326.922C255.14 326.565 254.399 325.882 253.969 325.008Z" fill="#22272E"/>
<path d="M256.211 331.624C256.211 331.624 262.336 329.327 267.75 331.624" stroke="white" stroke-width="0.984375" stroke-linecap="round" stroke-linejoin="round"/>
<path d="M255.773 334.742C255.773 334.742 263.047 332.445 269.062 334.742" stroke="white" stroke-width="0.984375" stroke-linecap="round" stroke-linejoin="round"/>
<path d="M268.735 216.343C268.735 216.343 280.328 219.515 294.219 224.437C307.344 229.086 312.485 231.82 313.906 240.953C315.328 250.086 313.578 282.625 315.328 291.211C317.078 299.797 319.102 305.867 317.406 310.297C317.119 311.155 316.661 311.947 316.06 312.624C315.458 313.301 314.726 313.848 313.906 314.234C313.906 314.234 306.852 317.242 300.563 315.82C299.366 315.448 298.256 314.84 297.298 314.032C296.34 313.224 295.554 312.233 294.985 311.117C292.906 307.234 294.93 294.711 293.344 285.359C291.758 276.008 290.008 260.586 288.094 250.25C286.18 239.914 255.008 235.758 251.016 227.609C247.024 219.461 249.102 212.297 249.102 212.297C249.102 212.297 265.235 211.968 268.735 216.343Z" fill="#22272E"/>
<path d="M260.64 226.734C260.623 225.359 260.495 223.988 260.258 222.633" stroke="#43ADEF" stroke-width="0.984375" stroke-linecap="round" stroke-linejoin="round"/>
<path d="M214.758 217.056C214.758 217.056 214.32 221.102 214.703 230.345C215.086 239.368 221.977 251.181 236.742 251.345C251.508 251.509 260.203 251.345 260.203 251.345C260.203 251.345 259.055 256.595 258.508 269.993C257.961 283.392 253.914 292.579 251.289 300.946C248.992 308.274 248.992 313.415 254.297 315.876C259.14 317.567 264.268 318.291 269.391 318.009C269.391 318.009 273.438 317.681 274.641 308.001C275.844 298.321 280.984 279.618 285.195 267.587C289.406 255.556 292.742 240.134 286.234 234.884C279.727 229.634 257.578 226.462 256.43 225.915C255.281 225.368 255.445 217.985 254.078 213.446C252.766 208.798 219.188 207.923 214.758 217.056Z" fill="#22272E"/>
<path d="M285.25 267.531C289.461 255.555 292.797 240.078 286.289 234.828C279.781 229.578 257.633 226.406 256.484 225.859" stroke="#43ADEF" stroke-width="0.984375" stroke-linecap="round" stroke-linejoin="round"/>
<path d="M256.539 225.859C256.539 225.859 250.852 224.765 248.555 225.148" stroke="#43ADEF" stroke-width="0.984375" stroke-linecap="round" stroke-linejoin="round"/>
<path d="M215.742 236.305C217.656 235.484 220.5 233.461 222.25 228.484" stroke="#43ADEF" stroke-width="0.984375" stroke-linecap="round" stroke-linejoin="round"/>
<path d="M260.203 251.344C260.838 249.639 261.804 248.078 263.047 246.75" stroke="#43ADEF" stroke-width="0.984375" stroke-linecap="round" stroke-linejoin="round"/>
<path d="M257.523 153.727C257.523 153.727 262.938 154.656 271.578 156.68C276.923 157.882 282.326 158.813 287.766 159.469C287.766 159.469 296.68 155.477 307.234 150.937C313.292 148.277 319.479 145.922 325.773 143.883C325.773 143.883 328.508 144.102 330.094 148.094C330.704 149.62 330.948 151.269 330.805 152.906C330.769 153.326 330.637 153.732 330.419 154.093C330.201 154.453 329.903 154.758 329.547 154.984C327.141 156.57 320.523 161 310.133 168.164C296.898 177.297 291.375 177.953 284.813 177.68C277.539 177.352 259.492 174.398 259.492 174.398C259.492 174.398 254.625 173.469 252.93 164.773C251.344 156.078 255.828 153.398 257.523 153.727Z" fill="#43ADEF"/>
<path d="M287.656 177.68C287.656 177.68 285.523 177.078 286.945 174.672C288.367 172.266 293.945 170.352 297.391 171.774C300.289 172.977 298.539 175 298.539 175" stroke="#107BBC" stroke-width="0.984375" stroke-linecap="round" stroke-linejoin="round"/>
<path d="M322.383 145.031C322.105 147.107 322.448 149.219 323.367 151.102C325.172 154.656 327.359 155.805 328.016 156.023" stroke="#107BBC" stroke-width="0.984375" stroke-linecap="round" stroke-linejoin="round"/>
<path d="M325.773 143.883C325.773 143.883 325.336 147.219 326.703 150.008C327.21 151.141 327.935 152.163 328.836 153.016C329.104 153.262 329.435 153.428 329.793 153.496C330.151 153.563 330.52 153.53 330.859 153.399C331.5 153.099 332.182 152.896 332.883 152.797C334.086 152.688 337.367 153.399 339.281 152.032C341.195 150.664 341.633 150.5 341.906 150.446C342.18 150.391 345.078 150.391 345.57 150.172C346.555 149.735 346.773 148.094 346.281 147.438C345.844 146.891 343 146.836 342.453 146.016C341.906 145.196 342.398 144.321 345.461 143.555C348.523 142.789 353.937 141.094 353.773 139.782C353.609 138.469 350.711 139.453 346.992 139.836C343.273 140.219 341.523 140.328 339.992 139.727C338.461 139.125 336.383 139.18 334.031 140.328C332.5 141.094 330.859 141.75 327.961 143.008C327.259 143.365 326.527 143.658 325.773 143.883Z" fill="#F9A07B"/>
<path d="M346.226 147.438C345.789 146.891 342.945 146.836 342.398 146.016C341.851 145.195 342.344 144.32 345.406 143.555C348.469 142.789 353.883 141.094 353.719 139.781" stroke="#E06A58" stroke-width="0.984375" stroke-linecap="round" stroke-linejoin="round"/>
<path d="M341.25 140.109C340.221 140.054 339.19 140.147 338.188 140.382" stroke="#E06A58" stroke-width="0.984375" stroke-linecap="round" stroke-linejoin="round"/>
<path d="M339.227 152.031C341.141 150.609 341.578 150.5 341.852 150.445C342.125 150.391 345.023 150.391 345.516 150.172" stroke="#E06A58" stroke-width="0.984375" stroke-linecap="round" stroke-linejoin="round"/>
<path d="M237.399 147.929C237.399 147.929 238 145.687 242.102 145.906C246.203 146.124 252.164 148.257 252.547 151.32C252.93 154.382 239.313 156.078 237.399 147.929Z" fill="#22272E"/>
<path d="M266.656 172.703C266.11 155.422 257.578 153.727 257.578 153.727C250.573 152.694 243.494 152.236 236.414 152.359C224.82 152.578 215.742 154.547 211.039 161.219C206.883 167.125 197.805 193.32 200.156 200.594C202.125 206.719 207.922 208.195 218.313 206.391C217.656 210.219 216.891 213.227 216.891 213.227C221.266 216.399 230.945 219.516 245.438 219.516C258.344 219.516 264.852 215.305 264.852 215.305C264.36 211.422 267.149 189.984 266.656 172.703Z" fill="#43ADEF"/>
<mask id="path-74-inside-1_640_71050" fill="white">
<path d="M252.656 157.773C253.258 161.438 253.531 169.422 254.516 176.969C255.5 184.516 255.664 195.617 255.719 206.227C255.746 212.581 256.387 218.918 257.633 225.148C265.016 222.688 270.266 216.891 270.266 216.891C270.266 216.891 270.977 216.016 269.062 208.961C267.148 201.906 266.656 176.969 266.656 176.969C266.948 172.82 266.727 168.65 266 164.555C264.797 158.594 260.75 154.383 257.633 153.398C255.938 152.852 254.163 152.593 252.383 152.633C252.383 152.633 252.492 155.422 252.656 157.773Z"/>
</mask>
<path d="M252.656 157.773C253.258 161.438 253.531 169.422 254.516 176.969C255.5 184.516 255.664 195.617 255.719 206.227C255.746 212.581 256.387 218.918 257.633 225.148C265.016 222.688 270.266 216.891 270.266 216.891C270.266 216.891 270.977 216.016 269.062 208.961C267.148 201.906 266.656 176.969 266.656 176.969C266.948 172.82 266.727 168.65 266 164.555C264.797 158.594 260.75 154.383 257.633 153.398C255.938 152.852 254.163 152.593 252.383 152.633C252.383 152.633 252.492 155.422 252.656 157.773Z" fill="#107BBC"/>
<path d="M255.719 206.227L256.266 206.224L256.266 206.224L255.719 206.227ZM257.633 225.148L257.097 225.256L257.218 225.863L257.806 225.667L257.633 225.148ZM270.266 216.891L270.671 217.258L270.681 217.247L270.69 217.236L270.266 216.891ZM266.656 176.969L266.111 176.93L266.109 176.955L266.109 176.98L266.656 176.969ZM266 164.555L266.539 164.459L266.536 164.447L266 164.555ZM257.633 153.398L257.465 153.919L257.468 153.92L257.633 153.398ZM252.383 152.633L252.138 153.122L252.259 153.183L252.395 153.18L252.383 152.633ZM252.117 157.862C252.413 159.665 252.629 162.546 252.897 165.958C253.164 169.355 253.479 173.25 253.973 177.04L255.058 176.898C254.568 173.14 254.254 169.27 253.988 165.872C253.722 162.489 253.501 159.546 253.196 157.685L252.117 157.862ZM253.973 177.04C254.952 184.546 255.117 195.612 255.172 206.229L256.266 206.224C256.211 195.623 256.048 184.485 255.058 176.898L253.973 177.04ZM255.172 206.229C255.199 212.618 255.843 218.99 257.097 225.256L258.169 225.041C256.93 218.845 256.292 212.543 256.266 206.224L255.172 206.229ZM257.806 225.667C261.578 224.41 264.792 222.306 267.056 220.527C268.19 219.635 269.09 218.822 269.708 218.23C270.017 217.934 270.256 217.693 270.419 217.525C270.5 217.441 270.562 217.375 270.604 217.33C270.626 217.307 270.642 217.29 270.653 217.278C270.658 217.272 270.663 217.267 270.666 217.264C270.667 217.262 270.668 217.261 270.669 217.26C270.67 217.259 270.67 217.259 270.67 217.258C270.671 217.258 270.671 217.258 270.671 217.258C270.671 217.258 270.671 217.258 270.266 216.891C269.86 216.524 269.86 216.523 269.86 216.523C269.86 216.523 269.86 216.523 269.86 216.523C269.86 216.523 269.86 216.524 269.86 216.524C269.86 216.524 269.859 216.525 269.858 216.526C269.856 216.528 269.852 216.532 269.848 216.537C269.839 216.547 269.824 216.562 269.805 216.583C269.767 216.624 269.709 216.685 269.633 216.764C269.479 216.923 269.25 217.154 268.952 217.44C268.355 218.012 267.481 218.801 266.38 219.667C264.173 221.401 261.071 223.426 257.46 224.63L257.806 225.667ZM270.266 216.891C270.69 217.236 270.691 217.234 270.692 217.233C270.692 217.233 270.693 217.232 270.694 217.231C270.695 217.23 270.696 217.228 270.697 217.227C270.7 217.224 270.702 217.22 270.704 217.217C270.709 217.211 270.714 217.205 270.718 217.198C270.727 217.184 270.737 217.17 270.746 217.155C270.764 217.124 270.781 217.089 270.797 217.05C270.83 216.971 270.86 216.872 270.884 216.746C270.932 216.496 270.96 216.119 270.928 215.541C270.863 214.385 270.552 212.361 269.59 208.818L268.535 209.104C269.487 212.615 269.777 214.556 269.836 215.602C269.865 216.124 269.835 216.406 269.81 216.541C269.797 216.607 269.786 216.632 269.788 216.629C269.788 216.627 269.792 216.618 269.801 216.604C269.805 216.596 269.81 216.588 269.817 216.578C269.82 216.573 269.824 216.568 269.828 216.563C269.83 216.56 269.832 216.557 269.834 216.554C269.835 216.553 269.837 216.552 269.838 216.55C269.838 216.549 269.839 216.548 269.839 216.548C269.84 216.547 269.841 216.546 270.266 216.891ZM269.59 208.818C269.125 207.104 268.739 204.265 268.423 200.934C268.109 197.616 267.869 193.846 267.688 190.292C267.507 186.738 267.386 183.404 267.31 180.959C267.272 179.736 267.245 178.735 267.228 178.041C267.219 177.693 267.213 177.422 267.209 177.238C267.207 177.147 267.205 177.076 267.204 177.029C267.204 177.006 267.204 176.988 267.203 176.976C267.203 176.97 267.203 176.965 267.203 176.962C267.203 176.961 267.203 176.96 267.203 176.959C267.203 176.959 267.203 176.958 267.203 176.958C267.203 176.958 267.203 176.958 266.656 176.969C266.109 176.98 266.109 176.98 266.109 176.98C266.109 176.98 266.109 176.98 266.11 176.981C266.11 176.982 266.11 176.983 266.11 176.984C266.11 176.987 266.11 176.992 266.11 176.998C266.11 177.01 266.11 177.028 266.111 177.052C266.112 177.1 266.113 177.17 266.116 177.263C266.12 177.447 266.126 177.719 266.134 178.068C266.152 178.764 266.178 179.767 266.216 180.992C266.293 183.443 266.414 186.784 266.595 190.347C266.777 193.909 267.018 197.696 267.335 201.038C267.65 204.367 268.043 207.29 268.535 209.104L269.59 208.818ZM267.202 177.007C267.496 172.813 267.274 168.599 266.538 164.459L265.462 164.65C266.181 168.702 266.399 172.826 266.111 176.93L267.202 177.007ZM266.536 164.447C265.916 161.375 264.563 158.752 262.96 156.767C261.363 154.79 259.488 153.411 257.797 152.877L257.468 153.92C258.895 154.37 260.602 155.589 262.109 157.454C263.609 159.311 264.881 161.774 265.464 164.663L266.536 164.447ZM257.801 152.878C256.047 152.313 254.212 152.045 252.371 152.086L252.395 153.18C254.114 153.141 255.828 153.391 257.465 153.919L257.801 152.878ZM252.627 152.144C252.086 152.173 251.836 152.654 251.836 152.654C251.836 152.654 251.836 152.654 251.836 152.654C251.836 152.655 251.836 152.655 251.836 152.655C251.836 152.655 251.836 152.656 251.836 152.656C251.836 152.658 251.837 152.66 251.837 152.663C251.837 152.668 251.837 152.676 251.838 152.687C251.838 152.708 251.84 152.739 251.841 152.78C251.845 152.861 251.85 152.979 251.856 153.129C251.869 153.428 251.888 153.851 251.912 154.348C251.96 155.341 252.028 156.63 252.111 157.812L253.202 157.735C253.12 156.565 253.052 155.284 253.004 154.295C252.98 153.8 252.962 153.379 252.949 153.082C252.942 152.933 252.938 152.815 252.934 152.735C252.933 152.695 252.931 152.664 252.931 152.643C252.93 152.632 252.93 152.625 252.93 152.619C252.929 152.617 252.929 152.615 252.929 152.613C252.929 152.613 252.929 152.612 252.929 152.612C252.929 152.612 252.929 152.612 252.929 152.612C252.929 152.611 252.929 152.611 252.929 152.611C252.929 152.611 252.679 153.092 252.138 153.122L252.627 152.144Z" fill="#1498EB" mask="url(#path-74-inside-1_640_71050)"/>
<path d="M238.274 141.695C238.274 141.695 237.946 147.929 237.946 150.992C237.946 156.351 245.274 161.874 248.008 161.874C252.438 161.874 253.203 156.679 252.985 154.382C252.766 152.085 252.711 145.413 252.766 145.249C252.821 145.085 241.008 138.742 238.274 141.695Z" fill="#F9A07B"/>
<path d="M240.898 144.977C241.719 151.758 247.133 155.312 252.984 155.094C252.996 154.874 252.977 154.653 252.93 154.437C252.82 153.508 252.766 151.867 252.766 150.281C248.555 152.469 243.359 148.914 240.898 144.977Z" fill="#E06A58"/>
<path d="M210.751 221.009C210.597 220.899 210.477 220.81 210.391 220.744C210.414 220.692 210.441 220.628 210.473 220.553C210.586 220.289 210.756 219.882 210.985 219.31C211.445 218.165 212.143 216.357 213.101 213.702C214.069 211.02 214.55 208.042 214.791 205.742C214.911 204.591 214.971 203.606 215.001 202.908C215.016 202.56 215.024 202.283 215.028 202.092C215.03 201.997 215.031 201.924 215.031 201.874L215.031 201.817L215.031 201.812L215.032 201.809L215.037 201.757L215.059 201.555C215.078 201.378 215.106 201.117 215.141 200.783C215.211 200.116 215.31 199.157 215.426 197.989C215.657 195.653 215.957 192.483 216.227 189.145C216.497 185.807 216.738 182.3 216.854 179.29C216.969 176.29 216.961 173.756 216.723 172.383C216.253 169.674 215.15 166.536 214.171 164.084C213.681 162.856 213.219 161.796 212.881 161.043C212.711 160.667 212.572 160.367 212.476 160.161C212.445 160.095 212.418 160.038 212.396 159.992C212.405 159.98 212.415 159.968 212.425 159.955C212.51 159.847 212.641 159.688 212.822 159.49C213.183 159.094 213.743 158.543 214.53 157.927C216.103 156.697 218.587 155.21 222.214 154.209L222.214 154.209C227.624 152.7 233.491 152.485 236.135 152.47L236.129 152.501L236.165 152.58C237.448 155.453 239.577 157.538 241.376 158.901C242.277 159.583 243.098 160.087 243.694 160.421C243.993 160.588 244.235 160.712 244.404 160.796C244.439 160.813 244.47 160.828 244.498 160.842C244.355 163.745 244.723 168.435 245.182 174.282C245.246 175.092 245.311 175.925 245.377 176.778C245.931 183.934 246.531 192.566 246.531 201.742C246.531 210.916 245.863 217.382 245.195 221.551C244.861 223.635 244.528 225.144 244.279 226.131C244.154 226.624 244.051 226.987 243.979 227.225C243.956 227.3 243.936 227.362 243.92 227.413C232.758 228.71 224.341 227.014 218.713 224.994C215.884 223.978 213.758 222.88 212.342 222.038C211.634 221.617 211.103 221.26 210.751 221.009Z" fill="#107BBC" stroke="#1498EB" stroke-width="0.546875"/>
<path d="M225.258 209.782C228.937 210.825 232.757 211.286 236.578 211.15C237.289 211.095 237.836 211.532 237.781 212.079V212.134C237.715 212.377 237.574 212.593 237.377 212.75C237.181 212.907 236.939 212.998 236.688 213.009C234.227 213.173 227.883 212.79 224.602 211.478C224.364 211.405 224.16 211.249 224.03 211.038C223.899 210.826 223.849 210.574 223.891 210.329C224 209.837 224.656 209.618 225.258 209.782Z" fill="#EAF9F3"/>
<path d="M261.078 209.617C262.172 209.343 264.633 208.796 267.312 207.867C267.695 207.757 268.133 208.085 268.242 208.632V208.687C268.306 208.856 268.308 209.042 268.247 209.212C268.187 209.382 268.069 209.525 267.914 209.617C266.656 210.109 263.484 211.257 261.461 211.367C261.269 211.344 261.088 211.264 260.942 211.137C260.795 211.01 260.69 210.843 260.64 210.656C260.531 210.164 260.695 209.726 261.078 209.617Z" fill="#EAF9F3"/>
<path d="M261.625 182.547H261.351C257.195 184.789 254.789 184.68 254.515 182.602C254.953 182.329 255.336 182.055 255.719 181.782C256.63 181.194 257.655 180.803 258.726 180.633C259.523 180.5 260.326 180.408 261.133 180.36C261.133 180.36 262.336 180.086 262.554 180.524C262.773 180.852 262.719 181.672 261.625 182.547Z" fill="#B28D93"/>
<path d="M289.187 201.741L258.125 201.687C257.895 201.688 257.667 201.641 257.457 201.548C257.246 201.455 257.057 201.32 256.903 201.15C256.748 200.979 256.631 200.779 256.559 200.56C256.487 200.342 256.461 200.111 256.484 199.882L258.836 175.819C258.886 175.3 259.137 174.82 259.535 174.483C259.934 174.146 260.448 173.978 260.969 174.015L292.141 176.093C292.487 176.126 292.806 176.294 293.031 176.559C293.256 176.825 293.368 177.168 293.344 177.515L290.828 200.265C290.787 200.671 290.597 201.047 290.293 201.32C289.99 201.593 289.596 201.743 289.187 201.741Z" fill="#22272E"/>
<path d="M278.578 178.774C278.595 178.693 278.593 178.61 278.573 178.531C278.553 178.451 278.515 178.377 278.463 178.314C278.41 178.251 278.344 178.201 278.269 178.166C278.195 178.132 278.113 178.116 278.031 178.117C277.849 178.126 277.674 178.195 277.536 178.314C277.397 178.433 277.302 178.595 277.266 178.774C277.249 178.854 277.251 178.937 277.271 179.017C277.291 179.096 277.329 179.17 277.381 179.233C277.434 179.296 277.5 179.347 277.575 179.381C277.649 179.415 277.731 179.431 277.813 179.43C277.992 179.413 278.162 179.341 278.299 179.223C278.437 179.106 278.534 178.949 278.578 178.774Z" fill="#63737A"/>
<path d="M250.523 195.782C250.466 196.018 250.352 196.237 250.189 196.418C250.027 196.6 249.822 196.738 249.594 196.821C241.543 200.258 233.22 203.02 224.711 205.078C222.414 205.625 220.226 206.118 218.258 206.446C207.812 208.196 202.07 206.774 200.101 200.649C197.75 193.375 206.828 167.235 210.984 161.274C211.318 160.795 211.684 160.338 212.078 159.907C217.82 155.422 223.781 159.797 225.094 167.125C225.75 171.008 224.109 175.274 222.742 180.141C221.758 183.641 219.242 189.274 219.242 189.274L247.898 186.321C248.154 186.281 248.416 186.31 248.657 186.407C248.897 186.503 249.108 186.662 249.266 186.868C251.891 189.766 251.016 194.086 250.523 195.782Z" fill="#43ADEF"/>
<path d="M219.242 189.219C219.242 189.219 213.664 189.875 211.531 191.297" stroke="#107BBC" stroke-width="0.984375" stroke-linecap="round" stroke-linejoin="round"/>
<path d="M244.016 186.648C244.016 186.648 242.484 188.398 243.086 192.063C243.742 196.055 245.492 197.148 246.695 197.969" stroke="#107BBC" stroke-width="0.984375" stroke-linecap="round" stroke-linejoin="round"/>
<path d="M200.101 201.141C200.101 201.141 199.5 197.86 204.258 197.805C209.015 197.75 214.375 204.313 211.039 207.157" stroke="#107BBC" stroke-width="0.984375" stroke-linecap="round" stroke-linejoin="round"/>
<path d="M272.344 190.75C272.016 191.789 269.5 190.805 267.586 190.258C265.125 189.547 263.484 189 263.32 188.945C264.912 189.803 266.43 190.79 267.859 191.898C269.828 193.375 271.305 194.961 270.648 195.727C269.992 196.492 266.055 194.195 266.055 194.195C266.055 194.195 267.477 195.18 267.805 196.328C268.133 197.477 266.219 197.094 262.609 194.906C262.609 194.906 261.242 194.961 258.672 196.109C256.102 197.258 252.273 196.711 251.07 196.328C250.591 196.187 250.094 196.113 249.594 196.109C249.318 196.106 249.047 196.041 248.801 195.918C248.555 195.795 248.339 195.617 248.172 195.398C247.153 194.165 246.508 192.666 246.312 191.078C246.094 189.055 246.586 187.906 246.969 187.359C247.145 187.075 247.416 186.862 247.734 186.758C248.393 186.534 249.033 186.26 249.648 185.938C250.141 185.664 251.945 184.352 253.75 183.148C254.014 182.979 254.27 182.797 254.516 182.602C256.793 182.718 259.076 182.7 261.352 182.547H261.625C263.977 182.383 270.266 182.93 270.922 183.641C271.578 184.352 270.648 185.281 267.695 185.227C266.104 185.223 264.514 185.332 262.937 185.555C264.568 185.963 266.16 186.512 267.695 187.195C269.992 188.234 272.727 189.711 272.344 190.75Z" fill="#F9A07B"/>
<path d="M263.375 188.945C263.375 188.945 262.5 188.617 261.844 188.453C261.45 188.354 261.047 188.299 260.641 188.289" stroke="#E06A58" stroke-width="0.984375" stroke-linecap="round" stroke-linejoin="round"/>
<path d="M266.055 194.195C266.055 194.195 264.25 192.336 262.172 191.898C261.242 191.734 260.641 191.68 260.641 191.68" stroke="#E06A58" stroke-width="0.984375" stroke-linecap="round" stroke-linejoin="round"/>
<path d="M262.992 185.554C262.202 185.523 261.412 185.596 260.641 185.773" stroke="#E06A58" stroke-width="0.984375" stroke-linecap="round" stroke-linejoin="round"/>
<path d="M258.234 182.656C257.794 182.662 257.355 182.626 256.922 182.547" stroke="#E06A58" stroke-width="0.984375" stroke-linecap="round" stroke-linejoin="round"/>
<path d="M252.492 155.039C252.437 154.311 252.437 153.58 252.492 152.852C252.562 152.344 252.581 151.831 252.547 151.32V150.062C252.547 150.062 252.875 150.773 253.531 151.922C254.188 153.07 253.203 158.102 252.711 158.703L252.492 155.039Z" fill="#22272E"/>
<path d="M258.453 130.704C258.242 134.037 258.242 137.379 258.453 140.712C258.597 143.213 257.907 145.692 256.492 147.76C255.077 149.828 253.017 151.369 250.633 152.141C246.969 153.29 240.078 150.446 238.437 142.298C236.797 134.149 233.242 124.962 242.758 121.626C252.273 118.29 258.562 122.938 258.453 130.704Z" fill="#F9A07B"/>
<path d="M253.885 142.07C253.885 142.07 254.635 142.109 255.346 141.26C255.741 140.786 256.077 140.193 255.86 140.016C255.643 139.818 252.068 140.371 251.831 140.845C251.594 141.319 252.976 142.07 253.885 142.07Z" fill="#E06A58"/>
<path d="M254.477 135.436C254.477 135.436 254.517 137.312 255.722 139.405C256.255 140.333 255.445 141.854 253.688 142.11" stroke="#423232" stroke-width="0.614259" stroke-miterlimit="10" stroke-linecap="round" stroke-linejoin="round"/>
<path opacity="0.42" d="M243.774 143.078C244.897 143.078 245.808 142.326 245.808 141.399C245.808 140.472 244.897 139.721 243.774 139.721C242.65 139.721 241.74 140.472 241.74 141.399C241.74 142.326 242.65 143.078 243.774 143.078Z" fill="#ED938A"/>
<path opacity="0.42" d="M258.349 139.762C258.289 140.868 258.309 141.954 258.23 143.04C257.361 142.842 256.729 142.191 256.729 141.421C256.729 140.591 257.42 139.92 258.349 139.762Z" fill="#ED938A"/>
<path d="M248.036 136.932C247.562 136.912 247.207 136.517 247.246 136.043L247.266 135.49C247.286 135.016 247.681 134.661 248.155 134.7C248.629 134.72 248.984 135.115 248.945 135.589L248.925 136.142C248.905 136.596 248.51 136.952 248.036 136.932Z" fill="#423232"/>
<path d="M256.165 137.254C255.73 137.235 255.395 136.859 255.414 136.425L255.434 135.911C255.454 135.477 255.829 135.141 256.264 135.161C256.698 135.181 257.034 135.556 257.014 135.99L256.994 136.504C256.975 136.938 256.599 137.274 256.165 137.254Z" fill="#423232"/>
<path d="M249.434 135.861C249.434 135.861 248.921 135.13 248.032 134.992C247.301 134.873 246.492 135.229 246.373 135.644" stroke="#423232" stroke-width="0.614259" stroke-miterlimit="10" stroke-linecap="round" stroke-linejoin="round"/>
<path d="M255.259 136.036C255.259 136.036 255.259 135.404 256.168 135.404C256.918 135.404 257.234 136.095 257.234 136.095" stroke="#423232" stroke-width="0.614259" stroke-miterlimit="10" stroke-linecap="round" stroke-linejoin="round"/>
<path d="M250.56 132.424C250.995 132.385 251.212 131.871 250.975 131.476C250.837 131.279 250.659 131.101 250.402 131.002C249.652 130.765 247.203 131.298 246.137 132.523C245.189 133.649 248.585 132.602 250.56 132.424Z" fill="#423232"/>
<path d="M255.773 132.739C255.438 132.64 255.339 132.147 255.615 131.831C255.754 131.673 255.951 131.534 256.168 131.495C256.84 131.376 258.38 131.989 258.815 133.154C259.21 134.161 257.373 133.134 255.773 132.739Z" fill="#423232"/>
<path d="M254.333 145.389C254.349 145.277 254.319 145.163 254.251 145.072C254.182 144.982 254.08 144.923 253.968 144.908C253.408 144.828 252.374 144.674 251.582 144.523C250.75 144.321 249.933 144.064 249.135 143.754C248.997 143.702 248.841 143.726 248.723 143.816C248.606 143.906 248.543 144.05 248.557 144.198C248.664 145.331 249.109 147.511 250.942 147.71C253.172 147.953 254.136 146.629 254.333 145.389Z" fill="#2B2B2B"/>
<path d="M253.594 146.925C253.594 146.925 251.377 144.597 248.813 145.56C248.813 145.56 249.093 147.582 250.864 147.798C252.77 148.03 253.594 146.925 253.594 146.925Z" fill="#E55151"/>
<path d="M237.891 136.444C237.891 136.444 239.039 135.734 239.422 133.327C239.444 133.059 239.53 132.8 239.673 132.572C239.816 132.343 240.011 132.152 240.242 132.015C240.79 131.776 241.27 131.407 241.642 130.94C242.014 130.473 242.266 129.922 242.375 129.335C242.484 128.296 242.922 127.53 244.016 128.132C252.602 133.109 258.289 128.569 258.289 128.569L258.344 131.687C261.68 130.757 263.703 126.382 263.047 123.155C262.227 119.109 260.695 119.874 258.781 116.812C256.867 113.749 253.367 111.616 248.883 113.202C244.399 114.788 242.758 115.499 239.258 115.444C235.758 115.39 232.422 116.866 232.149 120.148C231.875 123.429 228.867 124.413 228.32 127.476C227.774 130.538 228.977 132.069 230.125 133.273C231.274 134.476 229.086 137.866 231.984 140.71C234.883 143.554 236.797 144.429 238 146.288C238.164 146.288 238.602 141.257 237.891 136.444Z" fill="#22272E"/>
<path d="M238.875 137.375C238.875 137.375 236.797 133.875 234.008 135.461C231.219 137.047 234.172 142.516 238.492 142.242" fill="#F9A07B"/>
<path d="M234.445 137.757C234.476 137.641 234.531 137.532 234.607 137.438C234.682 137.344 234.776 137.266 234.883 137.21C234.997 137.118 235.128 137.051 235.27 137.014C235.411 136.976 235.559 136.969 235.703 136.992C236.011 137.054 236.284 137.23 236.469 137.484C236.616 137.69 236.745 137.91 236.852 138.14C236.998 138.53 237.108 138.933 237.18 139.343C237.234 139.507 237.234 139.617 237.344 139.726C237.501 139.86 237.689 139.954 237.891 139.999C237.68 140.136 237.429 140.194 237.18 140.163C236.894 140.085 236.643 139.911 236.469 139.671C236.241 139.312 236.057 138.926 235.922 138.523C235.859 138.354 235.786 138.19 235.703 138.031C235.662 137.918 235.585 137.822 235.484 137.757C235.32 137.538 234.883 137.593 234.445 137.757Z" fill="#22272E"/>
<path d="M239.367 171.501C239.586 173.579 238.219 175.821 236.25 175.985C235.292 176.021 234.356 175.691 233.633 175.062C232.909 174.433 232.452 173.552 232.355 172.598C232.258 171.645 232.527 170.689 233.108 169.927C233.689 169.165 234.539 168.652 235.484 168.493C237.508 168.275 239.203 169.423 239.367 171.501Z" fill="#43ADEF"/>
<path d="M244.781 160.672C244.781 160.672 238.93 158.102 236.359 152.414L237.398 147.93C238.602 150.23 240.47 152.116 242.758 153.344C243.377 153.661 243.9 154.138 244.275 154.724C244.649 155.31 244.862 155.985 244.891 156.68C244.933 158.011 244.897 159.344 244.781 160.672Z" fill="#22272E"/>
</svg>
