<svg xmlns="http://www.w3.org/2000/svg" viewBox="0 0 20 20" fill="none">
    <path
      d="M14.9062 9.0824C16.0687 8.91906 16.9637 7.9224 16.9662 6.7149C16.9662 5.5249 16.0987 4.53823 14.9612 4.35156"
      stroke="currentColor"
      strokeWidth="1.5"
      strokeLinecap="round"
      strokeLinejoin="round"
    />
    <path
      d="M16.4404 11.875C17.5663 12.0433 18.3521 12.4375 18.3521 13.25C18.3521 13.8092 17.9821 14.1725 17.3838 14.4008"
      stroke="currentColor"
      strokeWidth="1.5"
      strokeLinecap="round"
      strokeLinejoin="round"
    />
    <path
      fillRule="evenodd"
      clipRule="evenodd"
      d="M9.90529 12.2227C7.22695 12.2227 4.93945 12.6285 4.93945 14.2493C4.93945 15.8693 7.21279 16.2868 9.90529 16.2868C12.5836 16.2868 14.8703 15.8852 14.8703 14.2635C14.8703 12.6418 12.5978 12.2227 9.90529 12.2227Z"
      stroke="currentColor"
      strokeWidth="1.5"
      strokeLinecap="round"
      strokeLinejoin="round"
    />
    <path
      fillRule="evenodd"
      clipRule="evenodd"
      d="M9.90518 9.90797C11.6627 9.90797 13.0877 8.4838 13.0877 6.72547C13.0877 4.96797 11.6627 3.54297 9.90518 3.54297C8.14768 3.54297 6.72268 4.96797 6.72268 6.72547C6.71601 8.47714 8.13018 9.90214 9.88185 9.90797H9.90518Z"
      stroke="currentColor"
      strokeWidth="1.5"
      strokeLinecap="round"
      strokeLinejoin="round"
    />
    <path
      d="M4.90375 9.0824C3.74042 8.91906 2.84625 7.9224 2.84375 6.7149C2.84375 5.5249 3.71125 4.53823 4.84875 4.35156"
      stroke="currentColor"
      strokeWidth="1.5"
      strokeLinecap="round"
      strokeLinejoin="round"
    />
    <path
      d="M3.36967 11.875C2.24384 12.0433 1.45801 12.4375 1.45801 13.25C1.45801 13.8092 1.82801 14.1725 2.42634 14.4008"
      stroke="currentColor"
      strokeWidth="1.5"
      strokeLinecap="round"
      strokeLinejoin="round"
    />
</svg>