<svg viewBox="0 0 20 20" fill="none" xmlns="http://www.w3.org/2000/svg">
    <g clipPath="url(#clip0_6638_53769)">
    <path
          d="M6.25008 18.3327C8.78139 18.3327 10.8334 16.2807 10.8334 13.7493C10.8334 11.218 8.78139 9.16602 6.25008 9.16602C3.71878 9.16602 1.66675 11.218 1.66675 13.7493C1.66675 14.5842 1.88994 15.3669 2.27992 16.041L1.89591 18.1035L3.95841 17.7195C4.63256 18.1095 5.41526 18.3327 6.25008 18.3327Z"
          stroke="currentColor"
          strokeWidth="1.5"
          strokeLinecap="round"
          strokeLinejoin="round"
    />
    <path
          d="M12.7355 14.9142C13.549 14.7831 14.3133 14.5048 15.0002 14.1075L18.0002 14.666L17.4416 11.666C18.0088 10.6854 18.3335 9.54697 18.3335 8.33268C18.3335 4.65078 15.3487 1.66602 11.6668 1.66602C8.31068 1.66602 5.53377 4.146 5.06867 7.37338"
          stroke="currentColor"
          strokeWidth="1.5"
          strokeLinecap="round"
          strokeLinejoin="round"
    />
    </g>
    <defs>
    <clipPath id="clip0_6638_53769">
        <rect width="20" height="20" fill="white" />
    </clipPath>
    </defs>
</svg>