<svg
      xmlns="http://www.w3.org/2000/svg"
      width="20"
      height="20"
      viewBox="0 0 20 20"
      fill="none"
    >
      <path
        fillRule="evenodd"
        clipRule="evenodd"
        d="M15.8931 15.8909C13.3463 18.438 9.57514 18.9883 6.48901 17.561C6.03341 17.3776 5.6599 17.2294 5.3048 17.2294C4.31573 17.2352 3.08463 18.1942 2.44479 17.5552C1.80495 16.9153 2.76471 15.6832 2.76471 14.6881C2.76471 14.333 2.62234 13.9662 2.43893 13.5097C1.01102 10.424 1.56208 6.65159 4.10887 4.10535C7.35999 0.853042 12.642 0.853042 15.8931 4.10452C19.1501 7.36185 19.1442 12.6394 15.8931 15.8909Z"
        stroke="#787E87"
        strokeWidth="1.5"
        strokeLinecap="round"
        strokeLinejoin="round"
      />
      <path
        d="M13.283 10.3444H13.2905"
        stroke="#787E87"
        strokeWidth="2"
        strokeLinecap="round"
        strokeLinejoin="round"
      />
      <path
        d="M9.94221 10.3444H9.94971"
        stroke="#787E87"
        strokeWidth="2"
        strokeLinecap="round"
        strokeLinejoin="round"
      />
      <path
        d="M6.60139 10.3444H6.60889"
        stroke="#787E87"
        strokeWidth="2"
        strokeLinecap="round"
        strokeLinejoin="round"
      />
    </svg>