<svg width="32" height="32" viewBox="0 0 32 32" fill="none" xmlns="http://www.w3.org/2000/svg">
<rect width="32" height="32" rx="16" fill="#ECF7FD"/>
<path fill-rule="evenodd" clip-rule="evenodd" d="M12.112 13.8C12.112 15.0444 12.7105 16.1488 13.6354 16.8419C12.7062 17.0824 12.0661 17.5028 11.6502 18.1044C11.3128 18.5923 11.1584 19.1532 11.0839 19.7225C11.0109 20.2813 11.0109 20.8874 11.0109 21.4808V21.5C11.0109 21.7761 11.2347 22 11.5109 22H20.3197C20.5959 22 20.8197 21.7761 20.8197 21.5V21.4802C20.8197 20.8873 20.8197 20.2868 20.7466 19.735C20.6719 19.1718 20.5168 18.6194 20.1784 18.1373C19.7575 17.5377 19.1071 17.1174 18.1587 16.8689C19.1043 16.1777 19.7186 15.0607 19.7186 13.8C19.7186 11.7008 18.0153 10 15.9153 10C13.8153 10 12.112 11.7008 12.112 13.8Z" fill="#107BBC"/>
<path fill-rule="evenodd" clip-rule="evenodd" d="M10.5133 13.3478C8.88405 13.3478 7.81581 14.6364 7.81581 16.1435C7.81581 16.8523 7.99074 17.5452 8.39974 18.073C8.42801 18.1095 8.45724 18.145 8.48741 18.1794C7.89814 18.3682 7.49492 18.675 7.25634 19.1273C7.05774 19.5038 7.01087 19.9213 7.00178 20.3061C6.99716 20.5015 7.00234 20.7036 7.00812 20.9005L7.00999 20.9637C7.01531 21.1426 7.02056 21.319 7.02056 21.5C7.02056 21.7761 7.24442 22 7.52056 22C7.7967 22 8.02056 21.7761 8.02056 21.5C8.02056 21.3032 8.01484 21.1115 8.00956 20.9342L8.00769 20.8712C8.00187 20.673 7.99759 20.4954 8.0015 20.3297C8.00946 19.9926 8.0516 19.763 8.14081 19.5939C8.2886 19.3137 8.70216 18.9719 10.2728 18.939C10.5468 18.9333 10.7652 18.708 10.7623 18.4339C10.7594 18.1598 10.5364 17.9391 10.2623 17.9391C9.74924 17.9391 9.4121 17.7468 9.19018 17.4605C8.95532 17.1574 8.81581 16.7025 8.81581 16.1435C8.81581 15.1149 9.50737 14.3478 10.5133 14.3478C10.7895 14.3478 11.0133 14.124 11.0133 13.8478C11.0133 13.5717 10.7895 13.3478 10.5133 13.3478ZM21.4867 13.3478C21.2106 13.3478 20.9867 13.5717 20.9867 13.8478C20.9867 14.124 21.2106 14.3478 21.4867 14.3478C22.4927 14.3478 23.1842 15.1149 23.1842 16.1435C23.1842 16.7024 23.0447 17.1574 22.8098 17.4605C22.5878 17.7468 22.2506 17.9391 21.7375 17.9391C21.4634 17.9391 21.2404 18.1598 21.2376 18.4339C21.2347 18.708 21.453 18.9333 21.7271 18.939C23.2977 18.9719 23.7113 19.3137 23.8591 19.5939C23.9484 19.763 23.9905 19.9926 23.9985 20.3298C24.0024 20.4954 23.9981 20.673 23.9923 20.8712L23.9905 20.9344C23.9852 21.1116 23.9795 21.3032 23.9795 21.5C23.9795 21.7761 24.2033 22 24.4795 22C24.7556 22 24.9795 21.7761 24.9795 21.5C24.9795 21.3191 24.9847 21.1427 24.99 20.9638L24.9919 20.9005C24.9977 20.7036 25.0029 20.5015 24.9982 20.3061C24.9891 19.9212 24.9422 19.5037 24.7436 19.1273C24.505 18.675 24.1018 18.3682 23.5125 18.1794C23.5427 18.145 23.5719 18.1095 23.6002 18.073C24.0092 17.5453 24.1842 16.8524 24.1842 16.1435C24.1842 14.6364 23.116 13.3478 21.4867 13.3478Z" fill="#107BBC"/>
</svg>
